<svg xmlns="http://www.w3.org/2000/svg" xmlns:xlink="http://www.w3.org/1999/xlink" id="Layer_1" x="0" y="0" version="1.1" viewBox="0 0 1000 1000" style="enable-background:new 0 0 1000 1000" xml:space="preserve"><style type="text/css">.st0{fill:#c3ede1}.st1{fill:#333}.st2{opacity:.23}.st3,.st4{fill:none;stroke:#474747;stroke-width:6;stroke-linecap:round;stroke-linejoin:round;stroke-miterlimit:10}.st4{stroke:#333;stroke-width:10}.st5{fill:#cc6675}.st6{fill:#fee2ca}.st7{fill:#f26b79}.st8,.st9{opacity:.5;fill:#99675e}.st9{opacity:.53}.st10{fill:none;stroke:#333;stroke-width:8;stroke-linecap:round;stroke-linejoin:round;stroke-miterlimit:10}.st11{fill:#ffe9bd}.st12{fill:#e2e2e2}.st13{fill:none;stroke:#333;stroke-width:6;stroke-linecap:round;stroke-linejoin:round;stroke-miterlimit:10}.st14{fill:#fff3e9}.st15{fill:#f29f4d}.st16{fill:#db8945}.st17{fill:#f4b47a}.st18{opacity:.63;fill:#db8945}.st19{fill:#f9c59b}.st20{fill:#f4b77f}.st21{opacity:.39}.st21,.st22,.st23{fill:#f9c59b}.st22{opacity:.43}.st23{opacity:.32}.st24{fill:#cfe5e8}.st25{fill:#a7e3e8}.st26{fill:none;stroke:#333;stroke-width:12;stroke-linecap:round;stroke-linejoin:round;stroke-miterlimit:10}.st27{fill:#ea5050}.st28{fill:none;stroke:#333;stroke-width:4;stroke-linecap:round;stroke-linejoin:round;stroke-miterlimit:10}.st29{fill:#7dc163}.st30{opacity:.45;fill:#c4cecd}.st31{fill:#dbdddd}.st32{opacity:.55;fill:#fff}.st33{fill:#c4cecd}.st34{fill:#d7fff7}.st35{fill:none;stroke:#1d2f3d;stroke-width:10;stroke-linecap:round;stroke-linejoin:round;stroke-miterlimit:10}.st36{fill:#aecbd9}.st37{fill:#c4e7f4}.st38{opacity:.89;fill:#8ca2ae}.st39{fill:#64809b}.st40{opacity:.71;fill:#8ca2ae}.st41{opacity:.26;fill:#64809b}</style><rect id="XMLID_2_" width="1000" height="1000" class="st0"/><g><g><g><path d="M63.2,959.2c0,2.5-1.2,3.7-2.6,3.7c-1.1,0-1.9-0.5-2.1-1.4c-0.4,0.5-1,0.8-1.8,0.8c-1.5,0-2.6-1.2-2.6-2.8 c0-1.6,1.1-2.8,2.6-2.8c0.7,0,1.2,0.3,1.6,0.7v-0.5h1.6v3.9c0,0.8,0.3,1.4,1,1.4c0.9,0,1.7-0.9,1.7-3c0-3-2.3-5.3-5.4-5.3 c-3.1,0-5.6,2.4-5.6,5.7c0,3.3,2.5,5.7,5.9,5.7c1.1,0,2.1-0.2,2.9-0.4v0.6c-0.8,0.3-1.7,0.4-2.9,0.4c-3.7,0-6.5-2.6-6.5-6.2 c0-3.4,2.7-6.2,6.2-6.2C61.1,953.3,63.2,956.4,63.2,959.2z M58.3,959.5c0-0.8-0.6-1.4-1.3-1.4c-0.8,0-1.3,0.5-1.3,1.4 c0,0.8,0.6,1.3,1.3,1.3C57.8,960.9,58.3,960.3,58.3,959.5z" class="st1"/></g><g><path d="M69.4,955.1v2c-1.2-0.1-2.6,0.5-2.6,2.4v4.3h-1.9v-8.6h1.9v1.4C67.3,955.5,68.3,955.1,69.4,955.1z" class="st1"/></g><g><path d="M74.6,962.3c1,0,1.8-0.5,2.2-1.1l1.5,0.9c-0.8,1.2-2.1,1.9-3.8,1.9c-2.8,0-4.7-1.9-4.7-4.5 c0-2.5,1.8-4.5,4.5-4.5c2.6,0,4.3,2.1,4.3,4.5c0,0.3,0,0.5-0.1,0.8h-6.8C72.1,961.6,73.2,962.3,74.6,962.3z M76.9,958.8 c-0.3-1.5-1.3-2.1-2.5-2.1c-1.4,0-2.3,0.8-2.6,2.1H76.9z" class="st1"/></g><g><path d="M88.9,955.2v8.6h-1.9v-1.2c-0.7,0.9-1.7,1.5-3,1.5c-2.3,0-4.3-2-4.3-4.5c0-2.6,1.9-4.5,4.3-4.5 c1.3,0,2.3,0.5,3,1.4v-1.2H88.9z M87.1,959.5c0-1.6-1.2-2.7-2.7-2.7c-1.5,0-2.7,1.1-2.7,2.7c0,1.6,1.2,2.7,2.7,2.7 C85.9,962.3,87.1,961.1,87.1,959.5z" class="st1"/></g><g><path d="M91.1,951.3H93v12.5h-1.9V951.3z" class="st1"/></g><g><path d="M102.9,955.2l-3.3,8.6h-2.1l-3.3-8.6h2l2.4,6.5l2.4-6.5H102.9z" class="st1"/></g><g><path d="M104.2,955.2h1.9v8.9c0,2.4-1.2,3.5-3.5,3.3v-1.8c1.1,0.1,1.7-0.3,1.7-1.5V955.2z M104,952.8 c0-0.7,0.5-1.2,1.2-1.2c0.7,0,1.2,0.5,1.2,1.2c0,0.6-0.5,1.2-1.2,1.2C104.5,954,104,953.4,104,952.8z" class="st1"/></g><g><path d="M116,955.2l-3.3,8.8c-0.8,2.2-2.2,3.3-4.2,3.2v-1.7c1.2,0.1,1.9-0.5,2.3-1.7l0.1-0.2l-3.6-8.4h2l2.6,6.2 l2.2-6.2H116z" class="st1"/></g></g><g><path d="M211.9,938.7c0,2.1-1.5,3.8-3.6,3.8h-3v-7.6h3C210.4,934.9,211.9,936.6,211.9,938.7z M210.9,938.7 c0-1.6-1.1-2.9-2.6-2.9h-2v5.7h2C209.8,941.6,210.9,940.3,210.9,938.7z" class="st1"/><path d="M219.5,940.8h-3.4l-0.6,1.7h-1.1l2.8-7.6h1.1l2.8,7.6h-1.1L219.5,940.8z M219.2,939.9l-1.4-3.8l-1.4,3.8 H219.2z" class="st1"/><path d="M226.4,939.4v3.1h-1v-3.1l-2.7-4.5h1.1l2.1,3.6l2.1-3.6h1.1L226.4,939.4z" class="st1"/><path d="M242,940.3c0,1.5-1.2,2.4-2.6,2.4c-1.1,0-2.1-0.5-2.5-1.6l0.9-0.5c0.2,0.8,0.8,1.1,1.7,1.1 c0.9,0,1.6-0.5,1.6-1.4c0-0.9-0.7-1.4-1.6-1.4h-2.2l0.3-4h4.2v0.9h-3.3l-0.1,2h1.1C240.8,937.9,242,938.7,242,940.3z" class="st1"/><path d="M249.5,938.8L249.5,938.8l-2.5,3.7h-1.1l1.8-2.7c-0.1,0-0.2,0-0.4,0c-1.5,0-2.6-1-2.6-2.6 c0-1.5,1.1-2.6,2.6-2.6s2.6,1,2.6,2.6C249.9,937.9,249.8,938.4,249.5,938.8z M247.3,938.9c1,0,1.6-0.6,1.6-1.6s-0.7-1.6-1.6-1.6 s-1.6,0.6-1.6,1.6C245.7,938.3,246.4,938.9,247.3,938.9z" class="st1"/></g><g><path d="M58.9,938.7c0,2.1-1.5,3.8-3.6,3.8h-3v-7.6h3C57.4,934.9,58.9,936.6,58.9,938.7z M57.9,938.7 c0-1.6-1.1-2.9-2.6-2.9h-2v5.7h2C56.8,941.6,57.9,940.3,57.9,938.7z" class="st1"/><path d="M67,941.6v1h-4.6v-7.6h4.5v1h-3.5v2.3h3.2v0.9h-3.2v2.4H67z" class="st1"/><path d="M70,940.8l0.9-0.5c0.3,0.8,0.9,1.4,2,1.4c1.1,0,1.6-0.5,1.6-1.2c0-0.8-0.7-1-1.8-1.4 c-1.2-0.4-2.4-0.8-2.4-2.2c0-1.4,1.1-2.2,2.4-2.2c1.3,0,2.2,0.7,2.6,1.7l-0.8,0.5c-0.3-0.7-0.8-1.2-1.7-1.2 c-0.8,0-1.4,0.4-1.4,1.1c0,0.7,0.5,1,1.6,1.3c1.3,0.4,2.6,0.8,2.6,2.3c0,1.3-1.1,2.2-2.6,2.2C71.5,942.7,70.4,941.9,70,940.8z" class="st1"/><path d="M80,934.9v7.6h-1v-7.6H80z" class="st1"/><path d="M91.3,939.2c0,1.9-1.4,3.5-3.7,3.5c-2.4,0-4-1.8-4-4c0-2.2,1.7-4,4-4c1.4,0,2.7,0.8,3.3,1.8l-0.9,0.5 c-0.4-0.8-1.4-1.4-2.4-1.4c-1.8,0-3,1.3-3,3c0,1.7,1.2,3,3,3c1.6,0,2.5-0.9,2.7-2h-2.8v-0.9h3.8V939.2z" class="st1"/><path d="M100.6,934.9v7.6h-0.8l-3.9-5.7v5.7h-1v-7.6h0.8l3.9,5.7v-5.7H100.6z" class="st1"/><path d="M109.1,941.6v1h-4.6v-7.6h4.5v1h-3.5v2.3h3.2v0.9h-3.2v2.4H109.1z" class="st1"/><path d="M119.2,938.7c0,2.1-1.5,3.8-3.6,3.8h-3v-7.6h3C117.6,934.9,119.2,936.6,119.2,938.7z M118.2,938.7 c0-1.6-1.1-2.9-2.6-2.9h-2v5.7h2C117.1,941.6,118.2,940.3,118.2,938.7z" class="st1"/><path d="M133.2,940.4c0,1.2-1,2.2-2.2,2.2h-3.3v-7.6h3c1.2,0,2.1,0.9,2.1,2.1c0,0.7-0.3,1.2-0.8,1.6 C132.7,938.9,133.2,939.5,133.2,940.4z M128.7,935.8v2.3h2c0.6,0,1.1-0.5,1.1-1.2c0-0.6-0.5-1.2-1.1-1.2H128.7z M132.2,940.3 c0-0.7-0.5-1.2-1.2-1.2h-2.3v2.5h2.3C131.7,941.6,132.2,941,132.2,940.3z" class="st1"/><path d="M139.4,939.4v3.1h-1v-3.1l-2.7-4.5h1.1l2.1,3.6l2.1-3.6h1.1L139.4,939.4z" class="st1"/></g><g><path d="M212.4,964.3l-4.9-5.9v5.9h-2v-12.4h2v5.6l4.7-5.6h2.4l-5,6l5.2,6.4H212.4z" class="st1"/><path d="M215.7,952.9c0-0.7,0.5-1.2,1.2-1.2c0.7,0,1.2,0.5,1.2,1.2c0,0.7-0.5,1.2-1.2,1.2 C216.3,954.1,215.7,953.6,215.7,952.9z M216,955.4h1.9v8.9H216V955.4z" class="st1"/><path d="M222.9,957.3v4.2c0,1.1,0.7,1.1,2.2,1v1.7c-2.9,0.4-4.1-0.5-4.1-2.8v-4.2h-1.6v-1.8h1.6v-1.9l1.9-0.6v2.5h2.2 v1.8H222.9z" class="st1"/><path d="M226,959.9c0-2.6,2-4.7,4.7-4.7c1.7,0,3.2,0.9,3.9,2.3l-1.6,1c-0.4-0.8-1.3-1.4-2.3-1.4 c-1.6,0-2.7,1.2-2.7,2.8c0,1.6,1.2,2.8,2.7,2.8c1.1,0,1.9-0.5,2.4-1.4l1.6,0.9c-0.7,1.4-2.2,2.3-4,2.3 C228,964.5,226,962.5,226,959.9z" class="st1"/><path d="M244.1,958.9v5.4h-1.9v-5.2c0-1.3-0.8-2.1-2-2.1c-1.3,0-2.2,0.7-2.2,2.5v4.7H236v-12.4h1.9v4.7 c0.6-0.9,1.5-1.4,2.7-1.4C242.6,955.2,244.1,956.6,244.1,958.9z" class="st1"/><path d="M250.4,962.8c1.1,0,1.9-0.5,2.3-1.1l1.6,0.9c-0.8,1.2-2.1,1.9-3.9,1.9c-2.9,0-4.8-2-4.8-4.7 c0-2.6,1.9-4.7,4.7-4.7c2.6,0,4.4,2.1,4.4,4.7c0,0.3,0,0.5-0.1,0.8h-7C247.9,962.1,249,962.8,250.4,962.8z M252.8,959.1 c-0.3-1.5-1.4-2.2-2.5-2.2c-1.4,0-2.4,0.8-2.7,2.2H252.8z" class="st1"/><path d="M264.5,958.9v5.4h-1.9v-5.2c0-1.3-0.8-2.1-2-2.1c-1.3,0-2.2,0.7-2.2,2.5v4.7h-1.9v-8.9h1.9v1.1 c0.6-0.9,1.5-1.4,2.7-1.4C263.1,955.2,264.5,956.6,264.5,958.9z" class="st1"/></g><g><g><g><path d="M846.1,938.7c0,2.1-1.5,3.8-3.6,3.8h-3v-7.6h3C844.6,934.9,846.1,936.6,846.1,938.7z M845.2,938.7 c0-1.6-1.1-2.9-2.6-2.9h-2v5.7h2C844.1,941.6,845.2,940.3,845.2,938.7z" class="st1"/></g><g><path d="M849.3,938.7c0-2.2,1.7-4,3.9-4c2.2,0,4,1.8,4,4c0,2.2-1.7,4-4,4C851,942.7,849.3,940.9,849.3,938.7z M856.1,938.7c0-1.7-1.3-3-2.9-3c-1.7,0-2.9,1.3-2.9,3c0,1.7,1.3,3,2.9,3C854.9,941.7,856.1,940.4,856.1,938.7z" class="st1"/></g><g><path d="M859.8,934.9h1.1l1.7,6.3l1.9-6.3h1l1.9,6.3l1.7-6.3h1.1l-2.2,7.6h-1.2l-1.8-6.1l-1.8,6.1H862L859.8,934.9z" class="st1"/></g><g><path d="M879.3,934.9v7.6h-0.8l-3.9-5.7v5.7h-1v-7.6h0.8l3.9,5.7v-5.7H879.3z" class="st1"/></g><g><path d="M887.5,941.6v1h-4.3v-7.6h1v6.7H887.5z" class="st1"/></g><g><path d="M889.9,938.7c0-2.2,1.7-4,3.9-4c2.2,0,4,1.8,4,4c0,2.2-1.7,4-4,4C891.6,942.7,889.9,940.9,889.9,938.7z M896.8,938.7c0-1.7-1.3-3-2.9-3c-1.7,0-2.9,1.3-2.9,3c0,1.7,1.3,3,2.9,3C895.5,941.7,896.8,940.4,896.8,938.7z" class="st1"/></g><g><path d="M905.4,940.8H902l-0.6,1.7h-1.1l2.8-7.6h1.1l2.8,7.6H906L905.4,940.8z M905.1,939.9l-1.4-3.8l-1.4,3.8 H905.1z" class="st1"/></g><g><path d="M916.9,938.7c0,2.1-1.5,3.8-3.6,3.8h-3v-7.6h3C915.4,934.9,916.9,936.6,916.9,938.7z M915.9,938.7 c0-1.6-1.1-2.9-2.6-2.9h-2v5.7h2C914.9,941.6,915.9,940.3,915.9,938.7z" class="st1"/></g><g><path d="M926.5,935.8v2.5h3.2v1h-3.2v3.2h-1v-7.6h4.4v1H926.5z" class="st1"/></g><g><path d="M936.2,939.6h-1.8v2.9h-1v-7.6h3c1.3,0,2.4,1.1,2.4,2.4c0,1-0.7,1.9-1.6,2.2l1.8,3.1h-1.1L936.2,939.6z M934.4,938.7h2c0.8,0,1.4-0.6,1.4-1.4c0-0.8-0.6-1.4-1.4-1.4h-2V938.7z" class="st1"/></g><g><path d="M941.9,938.7c0-2.2,1.7-4,3.9-4c2.2,0,4,1.8,4,4c0,2.2-1.7,4-4,4C943.6,942.7,941.9,940.9,941.9,938.7z M948.8,938.7c0-1.7-1.3-3-2.9-3c-1.7,0-2.9,1.3-2.9,3c0,1.7,1.3,3,2.9,3C947.5,941.7,948.8,940.4,948.8,938.7z" class="st1"/></g><g><path d="M960.4,942.5h-1v-6l-2.5,4.2h-0.1l-2.5-4.1v5.9h-1v-7.6h1.1l2.4,4l2.4-4h1.1V942.5z" class="st1"/></g></g><g><g><path d="M839.3,952.9c0-0.7,0.5-1.2,1.2-1.2c0.7,0,1.2,0.5,1.2,1.2c0,0.7-0.5,1.2-1.2,1.2 C839.9,954.1,839.3,953.6,839.3,952.9z M839.6,955.4h1.9v8.9h-1.9V955.4z" class="st1"/></g><g><path d="M843.7,951.4h1.9v12.9h-1.9V951.4z" class="st1"/></g><g><path d="M847.8,951.4h1.9v12.9h-1.9V951.4z" class="st1"/></g><g><path d="M852,951.4h1.9v12.9H852V951.4z" class="st1"/></g><g><path d="M864,955.4v8.9h-1.9v-1.1c-0.6,0.9-1.5,1.4-2.7,1.4c-2,0-3.4-1.3-3.4-3.6v-5.4h1.9v5.2c0,1.3,0.8,2.1,2,2.1 c1.3,0,2.2-0.7,2.2-2.5v-4.7H864z" class="st1"/></g><g><path d="M872.6,961.8c0,1.8-1.5,2.7-3.5,2.7c-1.8,0-3-0.8-3.6-2.1l1.6-1c0.3,0.8,1,1.3,2,1.3c0.8,0,1.5-0.3,1.5-1 c0-1.6-4.8-0.7-4.8-3.9c0-1.7,1.4-2.7,3.2-2.7c1.5,0,2.7,0.7,3.3,1.8l-1.6,0.9c-0.3-0.7-0.9-1-1.7-1c-0.7,0-1.3,0.3-1.3,0.9 C867.9,959.5,872.6,958.5,872.6,961.8z" class="st1"/></g><g><path d="M876.7,957.3v4.2c0,1.1,0.7,1.1,2.2,1v1.7c-2.9,0.4-4.1-0.5-4.1-2.8v-4.2h-1.6v-1.8h1.6v-1.9l1.9-0.6v2.5 h2.2v1.8H876.7z" class="st1"/></g><g><path d="M885.4,955.3v2.1c-1.3-0.1-2.7,0.5-2.7,2.5v4.5h-1.9v-8.9h1.9v1.5C883.2,955.7,884.2,955.3,885.4,955.3z" class="st1"/></g><g><path d="M895.3,955.4v8.9h-1.9V963c-0.7,0.9-1.7,1.5-3.1,1.5c-2.4,0-4.4-2-4.4-4.7c0-2.6,2-4.7,4.4-4.7 c1.4,0,2.4,0.6,3.1,1.5v-1.3H895.3z M893.4,959.9c0-1.6-1.2-2.8-2.8-2.8c-1.6,0-2.8,1.2-2.8,2.8c0,1.6,1.2,2.8,2.8,2.8 C892.2,962.7,893.4,961.5,893.4,959.9z" class="st1"/></g><g><path d="M900.3,957.3v4.2c0,1.1,0.7,1.1,2.2,1v1.7c-2.9,0.4-4.1-0.5-4.1-2.8v-4.2h-1.6v-1.8h1.6v-1.9l1.9-0.6v2.5 h2.2v1.8H900.3z" class="st1"/></g><g><path d="M903.9,952.9c0-0.7,0.5-1.2,1.2-1.2c0.7,0,1.2,0.5,1.2,1.2c0,0.7-0.5,1.2-1.2,1.2 C904.5,954.1,903.9,953.6,903.9,952.9z M904.2,955.4h1.9v8.9h-1.9V955.4z" class="st1"/></g><g><path d="M907.8,959.9c0-2.6,2.1-4.7,4.7-4.7c2.6,0,4.7,2,4.7,4.7c0,2.6-2.1,4.7-4.7,4.7 C909.9,964.5,907.8,962.5,907.8,959.9z M915.3,959.9c0-1.6-1.2-2.8-2.8-2.8c-1.6,0-2.8,1.2-2.8,2.8c0,1.6,1.2,2.8,2.8,2.8 C914.1,962.7,915.3,961.5,915.3,959.9z" class="st1"/></g><g><path d="M927,958.9v5.4h-1.9v-5.2c0-1.3-0.8-2.1-2-2.1c-1.3,0-2.2,0.7-2.2,2.5v4.7h-1.9v-8.9h1.9v1.1 c0.6-0.9,1.5-1.4,2.7-1.4C925.5,955.2,927,956.6,927,958.9z" class="st1"/></g><g><path d="M935.5,961.8c0,1.8-1.5,2.7-3.5,2.7c-1.8,0-3-0.8-3.6-2.1l1.6-1c0.3,0.8,1,1.3,2,1.3c0.8,0,1.5-0.3,1.5-1 c0-1.6-4.8-0.7-4.8-3.9c0-1.7,1.4-2.7,3.2-2.7c1.5,0,2.7,0.7,3.3,1.8l-1.6,0.9c-0.3-0.7-0.9-1-1.7-1c-0.7,0-1.3,0.3-1.3,0.9 C930.7,959.5,935.5,958.5,935.5,961.8z" class="st1"/></g><g><path d="M936.8,963.2c0-0.7,0.6-1.3,1.3-1.3c0.7,0,1.3,0.6,1.3,1.3c0,0.7-0.6,1.3-1.3,1.3 C937.4,964.5,936.8,963.9,936.8,963.2z" class="st1"/></g><g><path d="M940.3,959.9c0-2.6,2-4.7,4.7-4.7c1.7,0,3.2,0.9,3.9,2.3l-1.6,1c-0.4-0.8-1.3-1.4-2.3-1.4 c-1.6,0-2.7,1.2-2.7,2.8c0,1.6,1.2,2.8,2.7,2.8c1.1,0,1.9-0.5,2.4-1.4l1.6,0.9c-0.7,1.4-2.2,2.3-4,2.3 C942.3,964.5,940.3,962.5,940.3,959.9z" class="st1"/></g><g><path d="M949.7,959.9c0-2.6,2.1-4.7,4.7-4.7c2.6,0,4.7,2,4.7,4.7c0,2.6-2.1,4.7-4.7,4.7 C951.8,964.5,949.7,962.5,949.7,959.9z M957.2,959.9c0-1.6-1.2-2.8-2.8-2.8s-2.8,1.2-2.8,2.8c0,1.6,1.2,2.8,2.8,2.8 S957.2,961.5,957.2,959.9z" class="st1"/></g></g></g></g><g id="XMLID_262_" class="st2"><polyline id="XMLID_269_" points="541.4 267.9 541.4 298.9 479.5 298.9" class="st3"/><polyline id="XMLID_268_" points="603.2 298.9 541.4 298.9 541.4 267.9" class="st3"/><rect id="XMLID_267_" width="61.9" height="30.9" x="510.4" y="298.9" class="st3"/><polyline id="XMLID_266_" points="558.9 360.7 541.4 360.7 541.4 329.8 603.2 329.8" class="st3"/><polyline id="XMLID_265_" points="479.5 329.8 541.4 329.8 541.4 360.7 491.2 360.7" class="st3"/><polyline id="XMLID_264_" points="458.4 298.9 510.4 298.9 510.4 329.8 479.5 329.8" class="st3"/><polyline id="XMLID_263_" points="616.9 329.8 572.3 329.8 572.3 298.9 593.7 298.9" class="st3"/></g><g id="XMLID_278_" class="st2"><polyline id="XMLID_285_" points="117.6 521.2 117.6 552.1 55.7 552.1" class="st3"/><polyline id="XMLID_284_" points="179.4 552.1 117.6 552.1 117.6 521.2" class="st3"/><rect id="XMLID_283_" width="61.9" height="30.9" x="86.6" y="552.1" class="st3"/><polyline id="XMLID_282_" points="135.1 614 117.6 614 117.6 583.1 179.4 583.1" class="st3"/><polyline id="XMLID_281_" points="55.7 583.1 117.6 583.1 117.6 614 67.4 614" class="st3"/><polyline id="XMLID_280_" points="34.6 552.1 86.6 552.1 86.6 583.1 55.7 583.1" class="st3"/><polyline id="XMLID_279_" points="193.1 583.1 148.5 583.1 148.5 552.1 169.9 552.1" class="st3"/></g><g id="XMLID_270_" class="st2"><polyline id="XMLID_277_" points="872 411.6 872 442.5 933.9 442.5" class="st3"/><polyline id="XMLID_276_" points="810.2 442.5 872 442.5 872 411.6" class="st3"/><rect id="XMLID_275_" width="61.9" height="30.9" x="841.1" y="442.5" class="st3" transform="matrix(-1 -4.490021e-11 4.490021e-11 -1 1744.0331 916)"/><polyline id="XMLID_274_" points="854.4 504.4 872 504.4 872 473.5 810.2 473.5" class="st3"/><polyline id="XMLID_273_" points="933.9 473.5 872 473.5 872 504.4 895.2 504.4" class="st3"/><polyline id="XMLID_272_" points="955 442.5 902.9 442.5 902.9 473.5 933.9 473.5" class="st3"/><polyline id="XMLID_271_" points="796.4 473.5 841.1 473.5 841.1 442.5 819.6 442.5" class="st3"/></g><line id="XMLID_1_" x1="75.8" x2="902.9" y1="726" y2="726" class="st4"/><g><path id="XMLID_79_" d="M741.5,375.6H637.6c-6.6,0-12-5.4-12-12v-130c0-6.6,5.4-12,12-12h103.9V375.6z" class="st5"/><path id="XMLID_78_" d="M741.5,375.6h103.9c6.6,0,12-5.4,12-12v-130c0-6.6-5.4-12-12-12H741.5V375.6z" class="st6"/><path id="XMLID_98_" d="M741.5,375.6h103.9c6.6,0,12-5.4,12-12v-130c0-6.6-5.4-12-12-12H741.5V375.6z" class="st5"/><path id="XMLID_12_" d="M845.4,375.6H637.6c-6.6,0-12-5.4-12-12v-130c0-6.6,5.4-12,12-12h207.8c6.6,0,12,5.4,12,12v130 C857.4,370.2,852,375.6,845.4,375.6z" class="st4"/><path id="XMLID_24_" d="M741.5,375.6H637.6c-6.6,0-12-5.4-12-12v-130c0-6.6,5.4-12,12-12h103.9V375.6z" class="st4"/><path id="XMLID_26_" d="M741.5,375.6H637.6c-6.6,0-12-5.4-12-12v-130c0-6.6,5.4-12,12-12h103.9V375.6z" class="st4"/><rect id="XMLID_100_" width="120.9" height="82.8" x="623.1" y="257.2" class="st7" transform="matrix(-1.836970e-16 1 -1 -1.836970e-16 982.1099 -384.9585)"/><rect id="XMLID_104_" width="8.6" height="82.8" x="679.3" y="313.3" class="st8" transform="matrix(-1.836970e-16 1 -1 -1.836970e-16 1038.2731 -328.7954)"/><rect id="XMLID_101_" width="9.9" height="82.8" x="678.6" y="201.7" class="st9" transform="matrix(-1.836970e-16 1 -1 -1.836970e-16 926.6367 -440.4316)"/><rect id="XMLID_31_" width="120.9" height="82.8" x="623.1" y="257.2" class="st10" transform="matrix(-1.836970e-16 1 -1 -1.836970e-16 982.1099 -384.9585)"/><path id="XMLID_29_" d="M741.5,375.6h103.9c6.6,0,12-5.4,12-12v-130c0-6.6-5.4-12-12-12H741.5V375.6z" class="st4"/><rect id="XMLID_99_" width="120.9" height="82.8" x="739" y="257.2" class="st7" transform="matrix(-1.836970e-16 1 -1 -1.836970e-16 1098.0238 -500.8725)"/><rect id="XMLID_103_" width="8.6" height="82.8" x="795.2" y="313.3" class="st8" transform="matrix(-1.836970e-16 1 -1 -1.836970e-16 1154.187 -444.7094)"/><rect id="XMLID_102_" width="9.9" height="82.8" x="794.5" y="201.7" class="st9" transform="matrix(-1.836970e-16 1 -1 -1.836970e-16 1042.5507 -556.3456)"/><rect id="XMLID_30_" width="120.9" height="82.8" x="739" y="257.2" class="st10" transform="matrix(-1.836970e-16 1 -1 -1.836970e-16 1098.0238 -500.8725)"/><line id="XMLID_32_" x1="703.9" x2="703.9" y1="278.4" y2="313.8" class="st4"/><line id="XMLID_33_" x1="777.3" x2="777.3" y1="278.4" y2="313.8" class="st4"/></g><g><circle id="XMLID_105_" cx="481.2" cy="254" r="56" class="st11"/><path id="XMLID_111_" d="M481.2,220c27.2,0,49.8,19.3,54.9,45c0.7-3.6,1.1-7.2,1.1-11c0-30.9-25.1-56-56-56 c-30.9,0-56,25.1-56,56c0,3.8,0.4,7.4,1.1,11C431.4,239.3,454,220,481.2,220z" class="st12"/><circle id="XMLID_27_" cx="481.2" cy="254" r="56" class="st4"/><ellipse id="XMLID_35_" cx="481.2" cy="254" class="st13" rx="46" ry="46" transform="matrix(0.1602 -0.9871 0.9871 0.1602 153.366 688.2611)"/><polyline id="XMLID_108_" points="466.5 225 481.2 254 506 254" class="st13"/><circle id="XMLID_106_" cx="481.2" cy="254" r="7.1" class="st1"/></g><g><circle id="XMLID_82_" cx="756.2" cy="468.4" r="8.2" class="st14"/><circle id="XMLID_34_" cx="756.2" cy="468.4" r="8.2" class="st10"/><rect id="XMLID_73_" width="67.1" height="190.3" x="779.7" y="535.7" class="st15"/><rect id="XMLID_97_" width="67.1" height="10.7" x="779.7" y="715.3" class="st16"/><rect id="XMLID_94_" width="67.1" height="12.8" x="779.7" y="535.7" class="st16"/><rect id="XMLID_71_" width="251.1" height="40.7" x="595.7" y="495" class="st17"/><rect id="XMLID_107_" width="251.1" height="8" x="595.7" y="527.7" class="st18"/><rect id="XMLID_91_" width="251.1" height="8.5" x="595.7" y="495" class="st19"/><rect id="XMLID_69_" width="92" height="95.2" x="595.7" y="630.8" class="st15"/><rect id="XMLID_95_" width="92" height="10.7" x="595.7" y="715.3" class="st16"/><rect id="XMLID_6_" width="92" height="231" x="595.7" y="495" class="st4"/><rect id="XMLID_15_" width="92" height="231" x="687.7" y="495" class="st4"/><rect id="XMLID_16_" width="67.1" height="231" x="779.7" y="495" class="st4"/><rect id="XMLID_45_" width="92" height="190.3" x="595.7" y="535.7" class="st4"/><rect id="XMLID_46_" width="92" height="95.2" x="595.7" y="630.8" class="st4"/><rect id="XMLID_67_" width="92" height="95.2" x="595.7" y="535.7" class="st15"/><rect id="XMLID_92_" width="92" height="12.8" x="595.7" y="535.7" class="st16"/><rect id="XMLID_50_" width="92" height="95.2" x="595.7" y="535.7" class="st4"/><rect id="XMLID_72_" width="92" height="190.3" x="687.7" y="535.7" class="st15"/><rect id="XMLID_96_" width="92" height="10.7" x="687.7" y="715.3" class="st16"/><rect id="XMLID_93_" width="92" height="12.8" x="687.7" y="535.7" class="st16"/><rect id="XMLID_44_" width="92" height="190.3" x="687.7" y="535.7" class="st4"/><rect id="XMLID_74_" width="138.2" height="53.1" x="664.6" y="610.1" class="st20" transform="matrix(-1.836970e-16 1 -1 -1.836970e-16 1370.3717 -97.0385)"/><polygon id="XMLID_124_" points="707.1 655.8 760.3 585.8 760.3 567.6 745.4 567.6 707.1 618" class="st21"/><polygon id="XMLID_127_" points="707.1 683.5 760.3 613.5 760.3 599.5 707.1 669.6" class="st21"/><polygon id="XMLID_128_" points="707.1 702.6 760.3 632.6 760.3 625.2 707.1 695.3" class="st21"/><rect id="XMLID_48_" width="138.2" height="53.1" x="664.6" y="610.1" class="st13" transform="matrix(-1.836970e-16 1 -1 -1.836970e-16 1370.3717 -97.0385)"/><rect id="XMLID_68_" width="46.1" height="53.1" x="618.7" y="564.1" class="st20" transform="matrix(-1.836970e-16 1 -1 -1.836970e-16 1232.3317 -51.0779)"/><polygon id="XMLID_118_" points="639.6 567.6 615.1 599.9 615.1 613.7 620.8 613.7 655.8 567.6" class="st22"/><polygon id="XMLID_122_" points="638.3 613.7 668.3 574.2 668.3 567.6 662.7 567.6 627.7 613.7" class="st22"/><rect id="XMLID_57_" width="46.1" height="53.1" x="618.7" y="564.1" class="st13" transform="matrix(-1.836970e-16 1 -1 -1.836970e-16 1232.3317 -51.0779)"/><rect id="XMLID_43_" width="67.1" height="190.3" x="779.7" y="535.7" class="st4"/><rect id="XMLID_75_" width="138.2" height="31.5" x="744.2" y="620.9" class="st20" transform="matrix(-1.836970e-16 1 -1 -1.836970e-16 1449.9069 -176.5736)"/><polygon id="XMLID_123_" points="797.5 656.3 829 614.7 829 576.9 797.5 618.4" class="st23"/><polygon id="XMLID_126_" points="797.5 678.4 829 636.9 829 622.9 797.5 664.5" class="st23"/><polygon id="XMLID_125_" points="797.5 694 829 652.4 829 645.1 797.5 686.6" class="st23"/><rect id="XMLID_47_" width="138.2" height="31.5" x="744.2" y="620.9" class="st13" transform="matrix(-1.836970e-16 1 -1 -1.836970e-16 1449.9069 -176.5736)"/><rect id="XMLID_9_" width="216" height="231" x="379.7" y="495" class="st4"/><rect id="XMLID_4_" width="216" height="184.6" x="379.7" y="535.7" class="st15"/><rect id="XMLID_87_" width="216" height="10" x="379.7" y="710.3" class="st16"/><rect id="XMLID_38_" width="216" height="12.8" x="379.7" y="535.7" class="st16"/><rect id="XMLID_19_" width="216" height="184.6" x="379.7" y="535.7" class="st4"/><path id="XMLID_5_" d="M412.3,668V609c0-11.6,9.4-21,21-21H542c11.6,0,21,9.4,21,21V668c0,11.6-9.4,21-21,21H433.4 C421.8,689,412.3,679.6,412.3,668z" class="st24"/><path id="XMLID_64_" d="M433.4,675c-3.9,0-7-3.2-7-7V609c0-3.9,3.2-7,7-7H542c3.9,0,7,3.2,7,7V668c0,3.9-3.2,7-7,7 H433.4z" class="st25"/><path id="XMLID_23_" d="M412.3,668V609c0-11.6,9.4-21,21-21H542c11.6,0,21,9.4,21,21V668c0,11.6-9.4,21-21,21H433.4 C421.8,689,412.3,679.6,412.3,668z" class="st10"/><line id="XMLID_25_" x1="527.3" x2="448.1" y1="561.5" y2="561.5" class="st4"/><rect id="XMLID_49_" width="40.7" height="216" x="467.4" y="407.3" class="st17" transform="matrix(-1.836970e-16 1 -1 -1.836970e-16 1003.0381 27.6285)"/><rect id="XMLID_109_" width="8" height="216" x="483.7" y="423.7" class="st18" transform="matrix(-1.836970e-16 1 -1 -1.836970e-16 1019.3715 43.9618)"/><rect id="XMLID_90_" width="8.5" height="216" x="483.5" y="391.3" class="st19" transform="matrix(-1.836970e-16 1 -1 -1.836970e-16 986.9548 11.5452)"/><rect id="XMLID_17_" width="40.7" height="216" x="467.4" y="407.3" class="st4" transform="matrix(-1.836970e-16 1 -1 -1.836970e-16 1003.0381 27.6285)"/><line id="XMLID_18_" x1="401" x2="447.7" y1="515.3" y2="515.3" class="st26"/><circle id="XMLID_60_" cx="527.3" cy="515.3" r="7.1" class="st27"/><circle id="XMLID_14_" cx="527.3" cy="515.3" r="7.1" class="st28"/><circle id="XMLID_61_" cx="548.7" cy="515.3" r="7.1" class="st29"/><circle id="XMLID_20_" cx="548.7" cy="515.3" r="7.1" class="st28"/><circle id="XMLID_21_" cx="570.2" cy="515.3" r="7.1" class="st28"/><circle id="XMLID_62_" cx="570.2" cy="515.3" r="7.1" class="st1"/><path id="XMLID_81_" d="M729.7,486.5c12.3,0,22.3-13.2,22.3-29.5h-44.6C707.4,473.3,717.4,486.5,729.7,486.5z" class="st14"/><path id="XMLID_114_" d="M740.2,457c0,13.6-7,25-16.4,28.4c1.9,0.7,3.8,1,5.9,1c12.3,0,22.3-13.2,22.3-29.5H740.2z" class="st30"/><path id="XMLID_39_" d="M729.7,486.5c12.3,0,22.3-13.2,22.3-29.5h-44.6C707.4,473.3,717.4,486.5,729.7,486.5z" class="st10"/><line id="XMLID_36_" x1="711.4" x2="748" y1="490" y2="490" class="st4"/><path id="XMLID_37_" d="M721.9,422.7c0,0-4,6-4,8.7c0,2.7,8.9,2,8.9,6s-4.5,10.1-4.5,10.1" class="st13"/><path id="XMLID_40_" d="M736.6,417.1c0,0-4,6-4,8.7c0,2.7,8.9,2,8.9,6s-4.5,10.1-4.5,10.1" class="st13"/><line id="XMLID_41_" x1="729.3" x2="726.9" y1="403" y2="409.3" class="st13"/><rect id="XMLID_42_" width="251.1" height="40.7" x="595.7" y="495" class="st4"/><line id="XMLID_52_" x1="631.1" x2="652.4" y1="551" y2="551" class="st10"/><rect id="XMLID_70_" width="46.1" height="53.1" x="618.7" y="656.1" class="st20" transform="matrix(-1.836970e-16 1 -1 -1.836970e-16 1324.4113 41.0017)"/><polygon id="XMLID_121_" points="639.6 659.7 615.1 691.9 615.1 705.7 620.8 705.7 655.8 659.7" class="st22"/><polygon id="XMLID_117_" points="638.3 705.7 668.3 666.3 668.3 659.7 662.7 659.7 627.7 705.7" class="st22"/><rect id="XMLID_58_" width="46.1" height="53.1" x="618.7" y="656.1" class="st13" transform="matrix(-1.836970e-16 1 -1 -1.836970e-16 1324.4113 41.0017)"/><line id="XMLID_54_" x1="631.1" x2="652.4" y1="645.1" y2="645.1" class="st10"/><path id="XMLID_51_" d="M707.1,548.5" class="st4"/><line id="XMLID_55_" x1="724.5" x2="707.1" y1="551" y2="551" class="st10"/><line id="XMLID_56_" x1="810.5" x2="797.5" y1="551" y2="551" class="st10"/><g><path id="XMLID_76_" d="M522,495h-71c-2.9,0-5.3-2.4-5.3-5.3v0c0-2.9,2.4-5.3,5.3-5.3h71c2.9,0,5.3,2.4,5.3,5.3v0 C527.3,492.6,524.9,495,522,495z" class="st1"/><polygon id="XMLID_85_" points="534.4 457 568 429.5 563.1 422.7 525 441.8" class="st14"/><polygon id="XMLID_22_" points="534.4 457 568 429.5 563.1 422.7 525 441.8" class="st4"/><path id="XMLID_84_" d="M520,484.4h-66.9c-10.2,0-18.5-8.3-18.5-18.5v-24.8c0-10.2,8.3-18.5,18.5-18.5H520 c10.2,0,18.5,8.3,18.5,18.5V466C538.5,476.2,530.2,484.4,520,484.4z" class="st31"/><path id="XMLID_89_" d="M448.1,466v-24.8c0-10.2,8.3-18.5,18.5-18.5h-13.4c-10.2,0-18.5,8.3-18.5,18.5V466 c0,10.2,8.3,18.5,18.5,18.5h13.4C456.4,484.4,448.1,476.2,448.1,466z" class="st32"/><path id="XMLID_88_" d="M520,422.7h-18.4c10.2,0,18.5,8.3,18.5,18.5V466c0,10.2-8.3,18.5-18.5,18.5H520 c10.2,0,18.5-8.3,18.5-18.5v-24.8C538.5,430.9,530.2,422.7,520,422.7z" class="st33"/><path id="XMLID_13_" d="M520,484.4h-66.9c-10.2,0-18.5-8.3-18.5-18.5v-24.8c0-10.2,8.3-18.5,18.5-18.5H520 c10.2,0,18.5,8.3,18.5,18.5V466C538.5,476.2,530.2,484.4,520,484.4z" class="st4"/><rect id="XMLID_86_" width="12.7" height="14.1" x="422" y="443.9" class="st1"/><rect id="XMLID_28_" width="12.7" height="14.1" x="422" y="443.9" class="st4"/><ellipse id="XMLID_77_" cx="487" cy="421.8" class="st4" rx="44.3" ry="7.8"/><rect id="XMLID_83_" width="9.7" height="14.7" x="481.7" y="403" class="st4"/><polyline id="XMLID_80_" points="577.3 392.5 574 398.5 580.5 406.2 574 414" class="st13"/></g><polygon id="XMLID_112_" points="464.1 675 519.4 602 498.2 602 442.9 675" class="st34"/><path id="XMLID_113_" d="M487,675l55.4-73c-0.1,0-0.2,0-0.4,0h-10.2l-55.4,73H487z" class="st34"/></g><line id="XMLID_115_" x1="452.1" x2="531.3" y1="774.6" y2="774.6" class="st35"/><line id="XMLID_110_" x1="417.3" x2="430" y1="774.6" y2="774.6" class="st35"/><g><path id="XMLID_3_" d="M335,726H157c-6.6,0-12-5.4-12-12V242c0-6.6,5.4-12,12-12h178c6.6,0,12,5.4,12,12v472 C347,720.6,341.6,726,335,726z" class="st36"/><path id="XMLID_59_" d="M159.5,714V242c0-6.6,5.8-12,12.9-12h-14.5c-7.1,0-12.9,5.4-12.9,12v472c0,6.6,5.8,12,12.9,12 h14.5C165.2,726,159.5,720.6,159.5,714z" class="st37"/><path id="XMLID_53_" d="M335,230h-22.5c6.6,0,12,5.4,12,12v472c0,6.6-5.4,12-12,12H335c6.6,0,12-5.4,12-12V242 C347,235.4,341.6,230,335,230z" class="st38"/><path id="XMLID_7_" d="M335,726H157c-6.6,0-12-5.4-12-12V242c0-6.6,5.4-12,12-12h178c6.6,0,12,5.4,12,12v472 C347,720.6,341.6,726,335,726z" class="st4"/><path id="XMLID_8_" d="M347,382H145V242c0-6.6,5.4-12,12-12h178c6.6,0,12,5.4,12,12V382z" class="st4"/><line id="XMLID_10_" x1="172.3" x2="172.3" y1="301.7" y2="348" class="st4"/><line id="XMLID_11_" x1="172.3" x2="172.3" y1="459.9" y2="544" class="st4"/><rect id="XMLID_65_" width="202" height="27.3" x="145" y="382" class="st39"/><rect id="XMLID_116_" width="23" height="27.3" x="324" y="382" class="st40"/><rect id="XMLID_66_" width="14.5" height="27.3" x="145" y="382" class="st41"/><rect id="XMLID_63_" width="202" height="27.3" x="145" y="382" class="st4"/><line id="XMLID_120_" x1="207" x2="284" y1="395.7" y2="395.7" class="st13"/></g></svg>